<svg xmlns="http://www.w3.org/2000/svg" version="1.1" xmlns:xlink="http://www.w3.org/1999/xlink" xmlns:svgjs="http://svgjs.dev/svgjs" width="1500" height="1500" viewBox="0 0 1500 1500"><rect width="1500" height="1500" fill="#0e1633"></rect><g transform="matrix(0.6666666666666666,0,0,0.6666666666666666,249.39448278471292,299.55161290322576)"><svg viewBox="0 0 276 248" data-background-color="#0e1633" preserveAspectRatio="xMidYMid meet" height="1347" width="1500" xmlns="http://www.w3.org/2000/svg" xmlns:xlink="http://www.w3.org/1999/xlink"><g id="tight-bounds" transform="matrix(1,0,0,1,0.16712275141924238,0.4000000000000057)"><svg viewBox="0 0 275.6657544971615 247.2" height="247.2" width="275.6657544971615"><g><svg viewBox="0 0 395.52 354.67787494440745" height="247.2" width="275.6657544971615"><g transform="matrix(1,0,0,1,0,222.60906326064048)"><svg viewBox="0 0 395.52 132.06881168376697" height="132.06881168376697" width="395.52"><g id="textblocktransform"><svg viewBox="0 0 395.52 132.06881168376697" height="132.06881168376697" width="395.52" id="textblock"><g><svg viewBox="0 0 395.52 84.77297464167584" height="84.77297464167584" width="395.52"><g transform="matrix(1,0,0,1,0,0)"><svg width="395.52" viewBox="4.5 -37 226.73 48.6" height="84.77297464167584" data-palette-color="#00ecff"><path d="M9.25 0L4.5 0 4.5-34.9Q6.55-35.15 9.03-35.27 11.5-35.4 14.15-35.4L14.15-35.4Q18.5-35.4 21.55-34.02 24.6-32.65 26.2-30.25 27.8-27.85 27.8-24.75L27.8-24.75Q27.8-21 25.95-18.4 24.1-15.8 20.8-14.43 17.5-13.05 13.15-13.05L13.15-13.05Q11.05-13.05 9.25-13.2L9.25-13.2 9.25 0ZM13.75-17L13.75-17Q18.2-17 20.65-19 23.1-21 23.1-24.35L23.1-24.35Q23.1-27.6 20.75-29.5 18.4-31.4 14.05-31.4L14.05-31.4Q12.7-31.4 11.5-31.35 10.3-31.3 9.25-31.2L9.25-31.2 9.25-17.25Q10.05-17.15 11.2-17.07 12.35-17 13.75-17ZM40.95 0.6L40.95 0.6Q38.65 0.6 36.8-0.28 34.95-1.15 33.87-3.1 32.8-5.05 32.8-8.15L32.8-8.15 32.8-37 37.3-37 37.3-8.6Q37.3-5.9 38.42-4.6 39.55-3.3 41.55-3.3L41.55-3.3Q42.5-3.3 43.42-3.53 44.35-3.75 45-4.05L45-4.05 46.1-0.4Q45.2 0 43.87 0.3 42.55 0.6 40.95 0.6ZM58.09 0.6L58.09 0.6Q55.84 0.6 53.84-0.35 51.84-1.3 50.59-3.43 49.34-5.55 49.34-9.1L49.34-9.1 49.34-26 53.84-26 53.84-9.7Q53.84-6.65 55.14-5.03 56.45-3.4 58.95-3.4L58.95-3.4Q60.99-3.4 62.92-4.23 64.84-5.05 66.34-6.45L66.34-6.45 66.34-26 70.84-26 70.84-6.75Q70.84-4.6 71.77-3.93 72.69-3.25 73.8-3.25L73.8-3.25 72.84 0.25Q68.19 0.25 67.09-3.45L67.09-3.45Q65.34-1.65 63.05-0.53 60.74 0.6 58.09 0.6ZM88.84 11.6L88.84 11.6Q86.54 11.6 84.37 11.05 82.19 10.5 80.49 9.4L80.49 9.4 82.14 5.5Q83.34 6.45 84.94 7.08 86.54 7.7 88.84 7.7L88.84 7.7Q92.39 7.7 94.42 5.83 96.44 3.95 96.44-0.15L96.44-0.15 96.44-3.35Q95.44-2.15 93.57-1.07 91.69 0 89.09 0L89.09 0Q86.14 0 83.49-1.53 80.84-3.05 79.19-6 77.54-8.95 77.54-13.1L77.54-13.1Q77.54-17 79.17-20.05 80.79-23.1 83.54-24.85 86.29-26.6 89.59-26.6L89.59-26.6Q91.79-26.6 93.59-25.85 95.39-25.1 96.69-24L96.69-24 96.69-26 100.79-26 100.79-0.6Q100.79 3.7 99.29 6.4 97.79 9.1 95.12 10.35 92.44 11.6 88.84 11.6ZM90.09-4L90.09-4Q92.09-4 93.69-4.9 95.29-5.8 96.29-7L96.29-7 96.29-20.6Q95.19-21.4 93.64-22.05 92.09-22.7 90.04-22.7L90.04-22.7Q87.99-22.7 86.19-21.6 84.39-20.5 83.27-18.43 82.14-16.35 82.14-13.35L82.14-13.35Q82.14-10.5 83.27-8.4 84.39-6.3 86.19-5.15 87.99-4 90.09-4ZM118.09 11.6L118.09 11.6Q115.79 11.6 113.62 11.05 111.44 10.5 109.74 9.4L109.74 9.4 111.39 5.5Q112.59 6.45 114.19 7.08 115.79 7.7 118.09 7.7L118.09 7.7Q121.64 7.7 123.67 5.83 125.69 3.95 125.69-0.15L125.69-0.15 125.69-3.35Q124.69-2.15 122.82-1.07 120.94 0 118.34 0L118.34 0Q115.39 0 112.74-1.53 110.09-3.05 108.44-6 106.79-8.95 106.79-13.1L106.79-13.1Q106.79-17 108.42-20.05 110.04-23.1 112.79-24.85 115.54-26.6 118.84-26.6L118.84-26.6Q121.04-26.6 122.84-25.85 124.64-25.1 125.94-24L125.94-24 125.94-26 130.04-26 130.04-0.6Q130.04 3.7 128.54 6.4 127.04 9.1 124.37 10.35 121.69 11.6 118.09 11.6ZM119.34-4L119.34-4Q121.34-4 122.94-4.9 124.54-5.8 125.54-7L125.54-7 125.54-20.6Q124.44-21.4 122.89-22.05 121.34-22.7 119.29-22.7L119.29-22.7Q117.24-22.7 115.44-21.6 113.64-20.5 112.52-18.43 111.39-16.35 111.39-13.35L111.39-13.35Q111.39-10.5 112.52-8.4 113.64-6.3 115.44-5.15 117.24-4 119.34-4ZM148.19 0.6L148.19 0.6Q142.59 0.6 139.31-2.98 136.04-6.55 136.04-13L136.04-13Q136.04-16.9 137.51-19.98 138.99-23.05 141.64-24.83 144.29-26.6 147.79-26.6L147.79-26.6Q151.54-26.6 154.01-24.98 156.49-23.35 157.74-20.6 158.99-17.85 158.99-14.55L158.99-14.55Q158.99-12.8 158.84-11.15L158.84-11.15 140.64-11.15Q141.09-7.5 143.19-5.45 145.29-3.4 148.74-3.4L148.74-3.4Q150.99-3.4 152.79-3.88 154.59-4.35 156.24-5.1L156.24-5.1 157.29-1.25Q155.49-0.45 153.24 0.08 150.99 0.6 148.19 0.6ZM140.59-14.8L140.59-14.8 154.84-14.8Q154.84-18.6 152.94-20.65 151.04-22.7 147.69-22.7L147.69-22.7Q144.79-22.7 142.89-20.68 140.99-18.65 140.59-14.8ZM174.84 0.6L174.84 0.6Q171.64 0.6 168.99-1.05 166.34-2.7 164.79-5.73 163.24-8.75 163.24-12.85L163.24-12.85Q163.24-16.8 164.81-19.9 166.39-23 169.01-24.8 171.64-26.6 174.79-26.6L174.79-26.6Q177.39-26.6 179.26-25.55 181.14-24.5 182.19-23.4L182.19-23.4 182.19-37 186.69-37 186.69-6.3Q186.69-4.4 187.61-3.83 188.54-3.25 189.64-3.25L189.64-3.25 188.69 0.25Q183.94 0.25 182.89-3.55L182.89-3.55Q181.79-2 179.81-0.7 177.84 0.6 174.84 0.6ZM175.84-3.4L175.84-3.4Q177.69-3.4 179.36-4.28 181.04-5.15 182.19-6.55L182.19-6.55 182.19-19.45Q181.24-20.65 179.54-21.68 177.84-22.7 175.79-22.7L175.79-22.7Q173.39-22.7 171.59-21.4 169.79-20.1 168.81-17.93 167.84-15.75 167.84-13L167.84-13Q167.84-10.25 168.89-8.08 169.94-5.9 171.76-4.65 173.59-3.4 175.84-3.4ZM200.88 0L196.13 0 196.13-35 200.88-35 200.88 0ZM213.88 0L209.38 0 209.38-26 213.73-26 213.73-21.65Q215.13-23.75 217.31-25.18 219.48-26.6 222.48-26.6L222.48-26.6Q226.88-26.6 229.06-23.95 231.23-21.3 231.23-16.95L231.23-16.95 231.23 0 226.73 0 226.73-16.45Q226.73-19.25 225.41-20.95 224.08-22.65 221.73-22.65L221.73-22.65Q219.43-22.65 217.38-21.03 215.33-19.4 213.88-17.2L213.88-17.2 213.88 0Z" opacity="1" transform="matrix(1,0,0,1,0,0)" fill="#00ecff" class="wordmark-text-0" data-fill-palette-color="primary" id="text-0"></path></svg></g></svg></g><g transform="matrix(1,0,0,1,31.64160000000001,104.78583940318411)"><svg viewBox="0 0 332.23679999999996 27.282972280582847" height="27.282972280582847" width="332.23679999999996"><g transform="matrix(1,0,0,1,0,0)"><svg width="332.23679999999996" viewBox="3.9 -35.8 442.61 36.349999999999994" height="27.282972280582847" data-palette-color="url(#89b51d6b-59ce-41fc-a4f9-880e1fd9a2ec)"></svg></g></svg></g></svg></g></svg></g><g transform="matrix(1,0,0,1,131.11651365160122,0)"><svg viewBox="0 0 133.2869726967975 202.5961984991322" height="202.5961984991322" width="133.2869726967975"><g><svg xmlns="http://www.w3.org/2000/svg" xmlns:xlink="http://www.w3.org/1999/xlink" version="1.1" x="0" y="0" viewBox="25 15 50 76" enable-background="new 0 0 100 100" xml:space="preserve" height="202.5961984991322" width="133.2869726967975" class="icon-icon-0" data-fill-palette-color="accent" id="icon-0"><g fill="#00ecff" data-fill-palette-color="accent"><g fill="#00ecff" data-fill-palette-color="accent"><polygon fill="#00ecff" points="34.82574,91 44,56 25,56 47,15 67,15 53,41 75,41   " data-fill-palette-color="accent"></polygon></g></g></svg></g></svg></g><g></g></svg></g><defs></defs><mask id="317b1ad5-e9ce-4391-9231-0cd4c9da15d6"><g id="SvgjsG5024"><svg viewBox="0 0 275.6657544971615 247.2" height="247.2" width="275.6657544971615"><g><svg viewBox="0 0 395.52 354.67787494440745" height="247.2" width="275.6657544971615"><g transform="matrix(1,0,0,1,0,222.60906326064048)"><svg viewBox="0 0 395.52 132.06881168376697" height="132.06881168376697" width="395.52"><g id="SvgjsG5023"><svg viewBox="0 0 395.52 132.06881168376697" height="132.06881168376697" width="395.52" id="SvgjsSvg5022"><g><svg viewBox="0 0 395.52 84.77297464167584" height="84.77297464167584" width="395.52"><g transform="matrix(1,0,0,1,0,0)"><svg width="395.52" viewBox="4.5 -37 226.73 48.6" height="84.77297464167584" data-palette-color="#00ecff"><path d="M9.25 0L4.5 0 4.5-34.9Q6.55-35.15 9.03-35.27 11.5-35.4 14.15-35.4L14.15-35.4Q18.5-35.4 21.55-34.02 24.6-32.65 26.2-30.25 27.8-27.85 27.8-24.75L27.8-24.75Q27.8-21 25.95-18.4 24.1-15.8 20.8-14.43 17.5-13.05 13.15-13.05L13.15-13.05Q11.05-13.05 9.25-13.2L9.25-13.2 9.25 0ZM13.75-17L13.75-17Q18.2-17 20.65-19 23.1-21 23.1-24.35L23.1-24.35Q23.1-27.6 20.75-29.5 18.4-31.4 14.05-31.4L14.05-31.4Q12.7-31.4 11.5-31.35 10.3-31.3 9.25-31.2L9.25-31.2 9.25-17.25Q10.05-17.15 11.2-17.07 12.35-17 13.75-17ZM40.95 0.6L40.95 0.6Q38.65 0.6 36.8-0.28 34.95-1.15 33.87-3.1 32.8-5.05 32.8-8.15L32.8-8.15 32.8-37 37.3-37 37.3-8.6Q37.3-5.9 38.42-4.6 39.55-3.3 41.55-3.3L41.55-3.3Q42.5-3.3 43.42-3.53 44.35-3.75 45-4.05L45-4.05 46.1-0.4Q45.2 0 43.87 0.3 42.55 0.6 40.95 0.6ZM58.09 0.6L58.09 0.6Q55.84 0.6 53.84-0.35 51.84-1.3 50.59-3.43 49.34-5.55 49.34-9.1L49.34-9.1 49.34-26 53.84-26 53.84-9.7Q53.84-6.65 55.14-5.03 56.45-3.4 58.95-3.4L58.95-3.4Q60.99-3.4 62.92-4.23 64.84-5.05 66.34-6.45L66.34-6.45 66.34-26 70.84-26 70.84-6.75Q70.84-4.6 71.77-3.93 72.69-3.25 73.8-3.25L73.8-3.25 72.84 0.25Q68.19 0.25 67.09-3.45L67.09-3.45Q65.34-1.65 63.05-0.53 60.74 0.6 58.09 0.6ZM88.84 11.6L88.84 11.6Q86.54 11.6 84.37 11.05 82.19 10.5 80.49 9.4L80.49 9.4 82.14 5.5Q83.34 6.45 84.94 7.08 86.54 7.7 88.84 7.7L88.84 7.7Q92.39 7.7 94.42 5.83 96.44 3.95 96.44-0.15L96.44-0.15 96.44-3.35Q95.44-2.15 93.57-1.07 91.69 0 89.09 0L89.09 0Q86.14 0 83.49-1.53 80.84-3.05 79.19-6 77.54-8.95 77.54-13.1L77.54-13.1Q77.54-17 79.17-20.05 80.79-23.1 83.54-24.85 86.29-26.6 89.59-26.6L89.59-26.6Q91.79-26.6 93.59-25.85 95.39-25.1 96.69-24L96.69-24 96.69-26 100.79-26 100.79-0.6Q100.79 3.7 99.29 6.4 97.79 9.1 95.12 10.35 92.44 11.6 88.84 11.6ZM90.09-4L90.09-4Q92.09-4 93.69-4.9 95.29-5.8 96.29-7L96.29-7 96.29-20.6Q95.19-21.4 93.64-22.05 92.09-22.7 90.04-22.7L90.04-22.7Q87.99-22.7 86.19-21.6 84.39-20.5 83.27-18.43 82.14-16.35 82.14-13.35L82.14-13.35Q82.14-10.5 83.27-8.4 84.39-6.3 86.19-5.15 87.99-4 90.09-4ZM118.09 11.6L118.09 11.6Q115.79 11.6 113.62 11.05 111.44 10.5 109.74 9.4L109.74 9.4 111.39 5.5Q112.59 6.45 114.19 7.08 115.79 7.7 118.09 7.7L118.09 7.7Q121.64 7.7 123.67 5.83 125.69 3.95 125.69-0.15L125.69-0.15 125.69-3.35Q124.69-2.15 122.82-1.07 120.94 0 118.34 0L118.34 0Q115.39 0 112.74-1.53 110.09-3.05 108.44-6 106.79-8.95 106.79-13.1L106.79-13.1Q106.79-17 108.42-20.05 110.04-23.1 112.79-24.85 115.54-26.6 118.84-26.6L118.84-26.6Q121.04-26.6 122.84-25.85 124.64-25.1 125.94-24L125.94-24 125.94-26 130.04-26 130.04-0.6Q130.04 3.7 128.54 6.4 127.04 9.1 124.37 10.35 121.69 11.6 118.09 11.6ZM119.34-4L119.34-4Q121.34-4 122.94-4.9 124.54-5.8 125.54-7L125.54-7 125.54-20.6Q124.44-21.4 122.89-22.05 121.34-22.7 119.29-22.7L119.29-22.7Q117.24-22.7 115.44-21.6 113.64-20.5 112.52-18.43 111.39-16.35 111.39-13.35L111.39-13.35Q111.39-10.5 112.52-8.4 113.64-6.3 115.44-5.15 117.24-4 119.34-4ZM148.19 0.6L148.19 0.6Q142.59 0.6 139.31-2.98 136.04-6.55 136.04-13L136.04-13Q136.04-16.9 137.51-19.98 138.99-23.05 141.64-24.83 144.29-26.6 147.79-26.6L147.79-26.6Q151.54-26.6 154.01-24.98 156.49-23.35 157.74-20.6 158.99-17.85 158.99-14.55L158.99-14.55Q158.99-12.8 158.84-11.15L158.84-11.15 140.64-11.15Q141.09-7.5 143.19-5.45 145.29-3.4 148.74-3.4L148.74-3.4Q150.99-3.4 152.79-3.88 154.59-4.35 156.24-5.1L156.24-5.1 157.29-1.25Q155.49-0.45 153.24 0.08 150.99 0.6 148.19 0.6ZM140.59-14.8L140.59-14.8 154.84-14.8Q154.84-18.6 152.94-20.65 151.04-22.7 147.69-22.7L147.69-22.7Q144.79-22.7 142.89-20.68 140.99-18.65 140.59-14.8ZM174.84 0.6L174.84 0.6Q171.64 0.6 168.99-1.05 166.34-2.7 164.79-5.73 163.24-8.75 163.24-12.85L163.24-12.85Q163.24-16.8 164.81-19.9 166.39-23 169.01-24.8 171.64-26.6 174.79-26.6L174.79-26.6Q177.39-26.6 179.26-25.55 181.14-24.5 182.19-23.4L182.19-23.4 182.19-37 186.69-37 186.69-6.3Q186.69-4.4 187.61-3.83 188.54-3.25 189.64-3.25L189.64-3.25 188.69 0.25Q183.94 0.25 182.89-3.55L182.89-3.55Q181.79-2 179.81-0.7 177.84 0.6 174.84 0.6ZM175.84-3.4L175.84-3.4Q177.69-3.4 179.36-4.28 181.04-5.15 182.19-6.55L182.19-6.55 182.19-19.45Q181.24-20.65 179.54-21.68 177.84-22.7 175.79-22.7L175.79-22.7Q173.39-22.7 171.59-21.4 169.79-20.1 168.81-17.93 167.84-15.75 167.84-13L167.84-13Q167.84-10.25 168.89-8.08 169.94-5.9 171.76-4.65 173.59-3.4 175.84-3.4ZM200.88 0L196.13 0 196.13-35 200.88-35 200.88 0ZM213.88 0L209.38 0 209.38-26 213.73-26 213.73-21.65Q215.13-23.75 217.31-25.18 219.48-26.6 222.48-26.6L222.48-26.6Q226.88-26.6 229.06-23.95 231.23-21.3 231.23-16.95L231.23-16.95 231.23 0 226.73 0 226.73-16.45Q226.73-19.25 225.41-20.95 224.08-22.65 221.73-22.65L221.73-22.65Q219.43-22.65 217.38-21.03 215.33-19.4 213.88-17.2L213.88-17.2 213.88 0Z" opacity="1" transform="matrix(1,0,0,1,0,0)" fill="black" class="wordmark-text-0" id="SvgjsPath5021"></path></svg></g></svg></g><g transform="matrix(1,0,0,1,31.64160000000001,104.78583940318411)"><svg viewBox="0 0 332.23679999999996 27.282972280582847" height="27.282972280582847" width="332.23679999999996"><g transform="matrix(1,0,0,1,0,0)"><svg width="332.23679999999996" viewBox="3.9 -35.8 442.61 36.349999999999994" height="27.282972280582847" data-palette-color="url(#89b51d6b-59ce-41fc-a4f9-880e1fd9a2ec)"><path d="M25.7 0L6.7-29.85 6.7 0 3.9 0 3.9-35 6.7-35 25.7-5.15 25.7-35 28.5-35 28.5 0 25.7 0ZM36.4 0L36.4-35 53.1-35 53.1-32.4 39.2-32.4 39.2-20.65 48.75-20.65 47.8-17.9 39.2-17.9 39.2-2.5 53-2.5 53 0 36.4 0ZM69.7 0L59.65-35 62.65-35 71.59-3.45 80.55-35 83.55-35 73.55 0 69.7 0ZM89.09 0L89.09-35 105.79-35 105.79-32.4 91.89-32.4 91.89-20.65 101.44-20.65 100.49-17.9 91.89-17.9 91.89-2.5 105.69-2.5 105.69 0 89.09 0ZM131.24 0L126.99-12.4Q126.09-12.25 124.99-12.25L124.99-12.25 115.14-12.25 115.14 0 112.34 0 112.34-35 124.64-35Q129.39-35 131.72-32.1 134.04-29.2 134.04-24.3L134.04-24.3Q134.04-20.55 133.22-17.65 132.39-14.75 129.64-13.25L129.64-13.25 134.09 0 131.24 0ZM125.04-15Q127.84-15 129.22-16.5 130.59-18 130.92-19.9 131.24-21.8 131.24-24.15L131.24-24.15Q131.24-28.25 129.54-30.3 127.84-32.35 124.84-32.35L124.84-32.35 115.14-32.35 115.14-15 125.04-15ZM174.69-9.25Q174.69-4.2 171.61-1.83 168.54 0.55 164.24 0.55L164.24 0.55Q161.54 0.55 159.14-0.43 156.74-1.4 155.21-3.6 153.69-5.8 153.69-9.25L153.69-9.25 153.69-25.35Q153.69-30.5 156.51-33.15 159.34-35.8 164.29-35.8L164.29-35.8Q169.24-35.8 171.96-33 174.69-30.2 174.69-25.3L174.69-25.3 174.69-9.25ZM171.94-25.8Q171.94-29.45 169.81-31.3 167.69-33.15 164.19-33.15L164.19-33.15Q160.69-33.15 158.59-31.3 156.49-29.45 156.49-25.8L156.49-25.8 156.49-9.3Q156.49-5.75 158.66-3.93 160.84-2.1 164.19-2.1L164.19-2.1Q167.59-2.1 169.76-3.88 171.94-5.65 171.94-9.35L171.94-9.35 171.94-25.8ZM199.93-35.05L202.73-35.05 202.73-9.3Q202.73-4.25 199.66-1.95 196.58 0.35 192.23 0.35L192.23 0.35Q187.88 0.35 184.78-1.95 181.68-4.25 181.68-9.3L181.68-9.3 181.68-35.05 184.48-35.05 184.48-8.9Q184.48-5.85 186.71-4 188.93-2.15 192.18-2.15L192.18-2.15Q195.43-2.15 197.68-4 199.93-5.85 199.93-8.9L199.93-8.9 199.93-35.05ZM214.78 0L214.78-32.5 206.28-32.5 206.28-35 226.38-35 226.38-32.5 217.58-32.5 217.58 0 214.78 0ZM264.43-9.25Q264.43-4.2 261.35-1.83 258.28 0.55 253.98 0.55L253.98 0.55Q251.28 0.55 248.88-0.43 246.48-1.4 244.95-3.6 243.43-5.8 243.43-9.25L243.43-9.25 243.43-25.35Q243.43-30.5 246.25-33.15 249.08-35.8 254.03-35.8L254.03-35.8Q258.98-35.8 261.7-33 264.43-30.2 264.43-25.3L264.43-25.3 264.43-9.25ZM261.68-25.8Q261.68-29.45 259.55-31.3 257.43-33.15 253.93-33.15L253.93-33.15Q250.43-33.15 248.33-31.3 246.23-29.45 246.23-25.8L246.23-25.8 246.23-9.3Q246.23-5.75 248.4-3.93 250.58-2.1 253.93-2.1L253.93-2.1Q257.33-2.1 259.5-3.88 261.68-5.65 261.68-9.35L261.68-9.35 261.68-25.8ZM271.62 0L271.62-35 288.32-35 288.32-32.35 274.42-32.35 274.42-20.65 282.97-20.65 281.82-17.9 274.42-17.9 274.42 0 271.62 0ZM307.77 0L307.77-35 320.07-35Q324.82-35 327.14-32.1 329.47-29.2 329.47-24.3L329.47-24.3Q329.47-21.15 328.97-18.63 328.47-16.1 326.47-14.18 324.47-12.25 320.42-12.25L320.42-12.25 310.57-12.25 310.57 0 307.77 0ZM320.47-15Q323.27-15 324.64-16.5 326.02-18 326.34-19.9 326.67-21.8 326.67-24.15L326.67-24.15Q326.67-28.25 324.97-30.3 323.27-32.35 320.27-32.35L320.27-32.35 310.57-32.35 310.57-15 320.47-15ZM355.26-9.25Q355.26-4.2 352.19-1.83 349.12 0.55 344.81 0.55L344.81 0.55Q342.12 0.55 339.72-0.43 337.31-1.4 335.79-3.6 334.26-5.8 334.26-9.25L334.26-9.25 334.26-25.35Q334.26-30.5 337.09-33.15 339.92-35.8 344.87-35.8L344.87-35.8Q349.81-35.8 352.54-33 355.26-30.2 355.26-25.3L355.26-25.3 355.26-9.25ZM352.51-25.8Q352.51-29.45 350.39-31.3 348.26-33.15 344.76-33.15L344.76-33.15Q341.26-33.15 339.17-31.3 337.06-29.45 337.06-25.8L337.06-25.8 337.06-9.3Q337.06-5.75 339.24-3.93 341.42-2.1 344.76-2.1L344.76-2.1Q348.17-2.1 350.34-3.88 352.51-5.65 352.51-9.35L352.51-9.35 352.51-25.8ZM383.56 0L378.61-29.95 373.66 0 369.41 0 361.16-35 364.16-35 371.31-3.45 376.66-35 380.56-35 385.91-3.45 392.96-35 395.96-35 387.81 0 383.56 0ZM401.51 0L401.51-35 418.21-35 418.21-32.4 404.31-32.4 404.31-20.65 413.86-20.65 412.91-17.9 404.31-17.9 404.31-2.5 418.11-2.5 418.11 0 401.51 0ZM443.66 0L439.41-12.4Q438.51-12.25 437.41-12.25L437.41-12.25 427.56-12.25 427.56 0 424.76 0 424.76-35 437.06-35Q441.81-35 444.13-32.1 446.46-29.2 446.46-24.3L446.46-24.3Q446.46-20.55 445.63-17.65 444.81-14.75 442.06-13.25L442.06-13.25 446.51 0 443.66 0ZM437.46-15Q440.26-15 441.63-16.5 443.01-18 443.33-19.9 443.66-21.8 443.66-24.15L443.66-24.15Q443.66-28.25 441.96-30.3 440.26-32.35 437.26-32.35L437.26-32.35 427.56-32.35 427.56-15 437.46-15Z" opacity="1" transform="matrix(1,0,0,1,0,0)" fill="white" class="slogan-text-1" id="SvgjsPath5020"></path></svg></g></svg></g></svg></g></svg></g><g transform="matrix(1,0,0,1,131.11651365160122,0)"><svg viewBox="0 0 133.2869726967975 202.5961984991322" height="202.5961984991322" width="133.2869726967975"><g><svg xmlns="http://www.w3.org/2000/svg" xmlns:xlink="http://www.w3.org/1999/xlink" version="1.1" x="0" y="0" viewBox="25 15 50 76" enable-background="new 0 0 100 100" xml:space="preserve" height="202.5961984991322" width="133.2869726967975" class="icon-icon-0" data-fill-palette-color="accent" id="SvgjsSvg5019"><g fill="black"><g fill="black"><polygon fill="black" points="34.82574,91 44,56 25,56 47,15 67,15 53,41 75,41   "></polygon></g></g></svg></g></svg></g><g></g></svg></g><defs><mask></mask></defs></svg><rect width="275.6657544971615" height="247.2" fill="black" stroke="none" visibility="hidden"></rect></g></mask><linearGradient x1="0.054" x2="0.941" y1="0.5" y2="0.5" id="89b51d6b-59ce-41fc-a4f9-880e1fd9a2ec"><stop stop-color="#0f3054" offset="0"></stop><stop stop-color="#3b8dcb" offset="0.498"></stop><stop stop-color="#0f3054" offset="1"></stop></linearGradient><rect width="275.6657544971615" height="247.2" fill="url(#89b51d6b-59ce-41fc-a4f9-880e1fd9a2ec)" mask="url(#317b1ad5-e9ce-4391-9231-0cd4c9da15d6)" data-fill-palette-color="secondary"></rect></svg><rect width="275.6657544971615" height="247.2" fill="none" stroke="none" visibility="hidden"></rect></g></svg></g></svg>